<?xml version="1.0" encoding="UTF-8"?>
<svg width="145px" height="57px" viewBox="0 0 145 57" version="1.1" xmlns="http://www.w3.org/2000/svg" xmlns:xlink="http://www.w3.org/1999/xlink">
    <!-- Generator: Sketch 50.2 (55047) - http://www.bohemiancoding.com/sketch -->
    <title>Group</title>
    <desc>Created with Sketch.</desc>
    <defs>
        <linearGradient x1="72.2143372%" y1="0%" x2="8.44004972%" y2="85.5115193%" id="linearGradient-1">
            <stop stop-color="#0C457C" offset="0%"></stop>
            <stop stop-color="#04306B" offset="100%"></stop>
        </linearGradient>
        <linearGradient x1="9.70744375%" y1="59.7827278%" x2="96.9120357%" y2="44.5981428%" id="linearGradient-2">
            <stop stop-color="#0E8EB0" offset="0%"></stop>
            <stop stop-color="#0D77AA" offset="100%"></stop>
        </linearGradient>
        <linearGradient x1="79.0053938%" y1="85.890402%" x2="15.4165719%" y2="21.9415632%" id="linearGradient-3">
            <stop stop-color="#045880" offset="0%"></stop>
            <stop stop-color="#192744" offset="100%"></stop>
        </linearGradient>
    </defs>
    <g id="Page-1" stroke="none" stroke-width="1" fill="none" fill-rule="evenodd">
        <g id="Desktop-Copy" transform="translate(-440.000000, -451.000000)" fill-rule="nonzero">
            <g id="Group" transform="translate(440.000000, 451.000000)">
                <path d="M67,0 C32.331416,0 -11.6766389,14.6104471 13.4917007,35 C-11.4574025,26.0602037 -6.21034444,0.852146969 67,0" id="Shape" fill="url(#linearGradient-1)"></path>
                <path d="M8,35.6835877 C49.9639351,73.4182996 174.699023,56.5741265 138.489389,20 C150.8033,41.8472376 71.1362485,64.1806664 8,35.6835877" id="Shape" fill="url(#linearGradient-2)"></path>
                <ellipse id="Oval" fill="url(#linearGradient-3)" cx="73.5" cy="24.5" rx="63.5" ry="22.5"></ellipse>
                <polygon id="Shape" fill="#FFFFFF" points="23.1893204 28 21.5 23.9586056 19.9126214 28 17 21 18.1504854 21 19.9563107 25.4226579 21.0194175 22.6470589 21.5436893 21.2592593 22.0970874 22.6165578 23.2330097 25.4226579 24.907767 21 26 21"></polygon>
                <polygon id="Shape" fill="#FFFFFF" points="28.030303 23.8600452 30.469697 23.8600452 30.469697 24.8397291 28.030303 24.8397291 28.030303 27.020316 30.9848485 27.020316 30.9848485 28 27 28 27 21 31 21 31 21.979684 28.030303 21.979684"></polygon>
                <path d="M35.9103387,26.6427518 C35.6827376,27.3541653 35.0844012,27.8774259 34.358617,27.9997723 L33.9396521,27.9997723 C33.6643522,28.0037495 33.3907284,27.9555917 33.1327568,27.8577585 C32.6840435,27.6718991 32.2927792,27.3666814 32,26.9741172 L32.8379297,26.295607 C33.0068585,26.5341491 33.2379557,26.7199634 33.50517,26.8321034 C33.7072398,26.8963718 33.923789,26.8963718 34.1258587,26.8321034 C34.4506732,26.7843891 34.7241964,26.5606652 34.8396507,26.248269 C34.8855696,25.9897087 34.804472,25.7246349 34.6224097,25.5382001 L33.7844799,24.7176761 L32.8999986,23.9602693 C32.6568389,23.7318498 32.4752146,23.4439473 32.3724132,23.1239659 C32.2841292,22.8362594 32.2841292,22.5280311 32.3724132,22.2403246 C32.4626355,21.9360371 32.641115,21.666546 32.8844814,21.4671385 C33.1201327,21.265018 33.4036368,21.1290309 33.7068939,21.0726558 C34.0363518,20.9757814 34.3860551,20.9757814 34.715513,21.0726558 C35.0789344,21.2196877 35.3994059,21.4586696 35.646546,21.7669454 L34.8086163,22.4454556 C34.6089121,22.1480007 34.2583999,21.994366 33.9086177,22.0509729 C33.6848889,22.0809035 33.4947601,22.2319505 33.4120667,22.4454556 C33.4120667,22.5716901 33.4120667,22.7926005 33.6758594,23.076628 L34.8086163,24.1811796 L35.3206844,24.6861175 C35.5916488,24.9279315 35.7950503,25.2381871 35.9103387,25.5855381 C36.0298871,25.9274584 36.0298871,26.3008315 35.9103387,26.6427518 Z" id="Shape" fill="#FFFFFF"></path>
                <polygon id="Shape" fill="#FFFFFF" points="42 21.9863637 40.0546624 21.9863637 40.0546624 28 38.9453376 28 38.9453376 21.9863637 37 21.9863637 37 21 42 21"></polygon>
                <path d="M45.831437,27.6970335 C44.7323601,27.1525615 44.0135764,25.900948 44.0000049,24.5079727 C43.9992825,24.037482 44.078243,23.5714603 44.2323508,23.1366766 C44.3862402,22.7219679 44.6039576,22.3436646 44.8747187,22.0205053 C45.1483318,21.6998002 45.4734303,21.4451398 45.831437,21.271076 C46.1993314,21.0913175 46.5943104,20.9991558 46.9931663,21.0000058 C47.3964093,20.9995803 47.7957872,21.0916849 48.1685629,21.271076 C48.8918657,21.6221446 49.4667333,22.2928234 49.7676491,23.1366766 C49.9217569,23.5714603 50.0007174,24.037482 49.999995,24.5079727 C50.0007237,24.9733045 49.9217278,25.4341134 49.7676491,25.8633235 C49.6184516,26.2809979 49.4001713,26.6602796 49.1252812,26.9794948 C48.8482875,27.2953828 48.5240276,27.5493863 48.1685629,27.7289241 C47.7958912,27.9087164 47.396444,28.0008371 46.9931663,27.9999943 C46.5924425,27.9907706 46.197388,27.8877466 45.831437,27.6970335 Z M45.5444215,22.7699345 C44.8541525,23.5762891 44.7473963,24.838834 45.2893091,25.7870012 C45.831222,26.7351684 46.8712745,27.1055811 47.7746922,26.6721659 C48.6781099,26.2387506 49.1939462,25.1218989 49.0073714,24.0032579 C48.8207965,22.8846171 47.9836361,22.0749169 47.0068337,22.0683413 C46.4585603,22.0646503 45.9318653,22.3173327 45.5444215,22.7699345 Z" id="Shape" fill="#FFFFFF"></path>
                <polygon id="Shape" fill="#FFFFFF" points="53 22.9394572 53 27.6659708 52 27.6659708 52 20 56 25.0104383 56 20.3173278 57 20.3173278 57 28"></polygon>
                <polygon id="Shape" fill="#FFFFFF" points="59.0454545 23.8600452 61.469697 23.8600452 61.469697 24.8397291 59.0454545 24.8397291 59.0454545 27.020316 62 27.020316 62 28 58 28 58 21 62 21 62 21.979684 59.0454545 21.979684"></polygon>
                <polygon id="Shape" fill="#FFFFFF" points="70 21.9863637 68.1189711 21.9863637 68.1189711 28 67.0096463 28 67.0096463 21.9863637 65 21.9863637 65 21 70 21"></polygon>
                <polygon id="Shape" fill="#FFFFFF" points="72.0454545 23.8600452 74.469697 23.8600452 74.469697 24.8397291 72.0454545 24.8397291 72.0454545 27.020316 75 27.020316 75 28 71 28 71 21 75 21 75 21.979684 72.0454545 21.979684"></polygon>
                <path d="M81,27.4272847 C80.8322453,27.5431396 80.6562476,27.6442161 80.4736887,27.7295481 C80.0750489,27.9089265 79.647768,28.000835 79.2163895,27.9999943 C77.4400502,27.9999943 76.0000428,26.4330393 76.0000428,24.5001025 C75.9955928,23.5671087 76.338384,22.6718827 76.9503271,22.018361 C77.5525295,21.3667419 78.3671297,21.0007391 79.2163895,21.0002107 C79.6481494,20.994984 80.0762297,21.0870645 80.4736887,21.2706569 L80.6052665,21.2706569 L80.6052665,22.5592534 C79.6837759,21.7404604 78.3317602,21.8635143 77.5480725,22.8375044 C76.7643847,23.8114946 76.8309299,25.2860609 77.6985453,26.1718116 C78.5661609,27.0575622 79.9227513,27.0358782 80.7660839,26.1227796 L80.9853802,25.8523334 L81,27.4272847 Z" id="Shape" fill="#FFFFFF"></path>
                <polygon id="Shape" fill="#FFFFFF" points="87 28 85.8977636 28 85.8977636 24.9703872 83.1022364 24.9703872 83.1022364 28 82 28 82 21 83.1022364 21 83.1022364 23.997722 85.8977636 23.997722 85.8977636 21 87 21"></polygon>
                <polygon id="Shape" fill="#FFFFFF" points="88.9565217 22.9394572 88.9565217 27.6659708 88 27.6659708 88 20 92 25.0104383 92 20.3173278 93 20.3173278 93 28"></polygon>
                <path d="M95.831437,27.6970335 C94.7323601,27.1525615 94.0135764,25.900948 94.0000049,24.5079727 C93.9992825,24.037482 94.078243,23.5714603 94.2323508,23.1366766 C94.385967,22.7217938 94.6037162,22.3434354 94.8747187,22.0205053 C95.1483318,21.6998002 95.4734303,21.4451398 95.831437,21.271076 C96.1993314,21.0913175 96.5943104,20.9991558 96.9931663,21.0000058 C97.396444,20.9991632 97.7958912,21.0912837 98.1685629,21.271076 C98.8918657,21.6221446 99.4667333,22.2928234 99.7676491,23.1366766 C99.9217569,23.5714603 100.000717,24.037482 99.999995,24.5079727 C100.000724,24.9733045 99.9217278,25.4341134 99.7676491,25.8633235 C99.6184516,26.2809979 99.4001713,26.6602796 99.1252812,26.9794948 C98.8482875,27.2953828 98.5240276,27.5493863 98.1685629,27.7289241 C97.7958912,27.9087164 97.396444,28.0008371 96.9931663,27.9999943 C96.5924425,27.9907706 96.197388,27.8877466 95.831437,27.6970335 Z M95.5444215,22.7699345 C94.8541525,23.5762891 94.7473963,24.838834 95.2893091,25.7870012 C95.831222,26.7351684 96.8712745,27.1055811 97.7746922,26.6721659 C98.6781099,26.2387506 99.1939462,25.1218989 99.0073714,24.0032579 C98.8207965,22.8846171 97.9836361,22.0749169 97.0068337,22.0683413 C96.4585603,22.0646503 95.9318653,22.3173327 95.5444215,22.7699345 Z" id="Shape" fill="#FFFFFF"></path>
                <polygon id="Shape" fill="#FFFFFF" points="105 28 101 28 101 21 102.090909 21 102.090909 27.0751707 105 27.0751707"></polygon>
                <path d="M106.831437,27.6970335 C105.73236,27.1525615 105.013576,25.900948 105.000005,24.5079727 C104.999283,24.037482 105.078243,23.5714603 105.232351,23.1366766 C105.385967,22.7217938 105.603716,22.3434354 105.874719,22.0205053 C106.148332,21.6998002 106.47343,21.4451398 106.831437,21.271076 C107.199331,21.0913175 107.59431,20.9991558 107.993166,21.0000058 C108.396409,20.9995803 108.795787,21.0916849 109.168563,21.271076 C109.891866,21.6221446 110.466733,22.2928234 110.767649,23.1366766 C110.921757,23.5714603 111.000717,24.037482 110.999995,24.5079727 C111.000724,24.9733045 110.921728,25.4341134 110.767649,25.8633235 C110.618452,26.2809979 110.400171,26.6602796 110.125281,26.9794948 C109.848288,27.2953828 109.524028,27.5493863 109.168563,27.7289241 C108.795891,27.9087164 108.396444,28.0008371 107.993166,27.9999943 C107.592443,27.9907706 107.197388,27.8877466 106.831437,27.6970335 Z M106.544421,22.7699345 C105.854153,23.5762891 105.747396,24.838834 106.289309,25.7870012 C106.831222,26.7351684 107.871274,27.1055811 108.774692,26.6721659 C109.67811,26.2387506 110.193946,25.1218989 110.007371,24.0032579 C109.820796,22.8846171 108.983636,22.0749169 108.006834,22.0683413 C107.45856,22.0646503 106.931865,22.3173327 106.544421,22.7699345 Z" id="Shape" fill="#FFFFFF"></path>
                <path d="M118,25.5966832 L118,27.516 L117.782609,27.6934158 L117.666667,27.6934158 L117.463768,27.6934158 C117.102209,27.8727317 116.714126,27.976604 116.318841,27.9998614 L116.15942,27.9998614 C115.819523,28.0032838 115.481512,27.9433153 115.15942,27.8224456 L115.057971,27.8224456 L114.927536,27.8224456 L114.623188,27.6450296 C114.359509,27.4893227 114.119792,27.2878794 113.913043,27.0482672 C113.622136,26.7248466 113.390756,26.3413383 113.231884,25.9192574 C113.108114,25.5958335 113.029901,25.2531031 113,24.9031485 C113,24.7902474 113,24.6612177 113,24.5483168 L113,24.370901 C113.021086,23.9552375 113.104355,23.5464043 113.246377,23.1612474 C113.407475,22.7405058 113.638585,22.3574448 113.927536,22.0322376 C114.524507,21.3716026 115.332031,21.0005357 116.173913,21 L116.42029,21 C116.790407,21.025319 117.153538,21.1236189 117.492754,21.2903168 L117.492754,22.5967426 C117.360102,22.4744702 117.213999,22.3714936 117.057971,22.2902971 L116.666667,22.1290098 L116.115942,22.1290098 C115.718103,22.1222184 115.326505,22.2395496 114.985507,22.4677129 C114.847142,22.5618013 114.720458,22.6756726 114.608696,22.8064158 L114.318841,23.1289901 L114.202899,23.3064059 L114.202899,23.3870495 C114.079211,23.6105557 113.99097,23.8560616 113.942029,24.1128416 C113.942029,24.2096138 113.942029,24.3063861 113.942029,24.4031584 L113.942029,24.5160593 C113.938055,24.5589556 113.938055,24.6021929 113.942029,24.645089 C113.937722,24.6879654 113.937722,24.7312424 113.942029,24.7741188 C113.948899,24.9539201 113.973194,25.1323703 114.014493,25.3063663 C114.280046,26.3538979 115.137924,27.0781653 116.115942,27.0805248 L116.405797,27.0805248 L116.594203,27.0805248 L116.753623,27.0805248 C116.873856,27.0459801 116.990452,26.997321 117.101449,26.9353663 L117.101449,25.6289406 L115.768116,25.6289406 L115.768116,24.5805742 L117.971014,24.5805742 L118,25.5966832 Z" id="Shape" fill="#FFFFFF"></path>
                <polygon id="Shape" fill="#FFFFFF" points="120.970822 24.3409091 120.970822 28 120.055703 28 120.055703 24.3409091 118 21 118.981432 21 120.506631 23.4818182 122.03183 21 123 21"></polygon>
                <polygon id="Shape" fill="#FFFFFF" points="127 19.4235295 126.219512 19.4235295 126.219512 22 125.780488 22 125.780488 19.3529413 125 19.3529413 125 19 127 19"></polygon>
                <polygon id="Shape" fill="#FFFFFF" points="129.506098 22 129.506098 20.4325843 128.518293 21.7977529 127.512195 20.4325843 127.512195 22 127 22 127 19 128.5 21.0561798 130 19 130 22"></polygon>
            </g>
        </g>
    </g>
</svg>