<!--?xml version="1.0" encoding="UTF-8"?-->
<svg width="100px" height="100px" viewBox="0 0 100 100" version="1.1" xmlns="http://www.w3.org/2000/svg" xmlns:xlink="http://www.w3.org/1999/xlink" style="">
    <!-- Generator: Sketch 51.2 (57519) - http://www.bohemiancoding.com/sketch -->
    <title>Artboard 9 Copy 2</title>
    <desc>Created with Sketch.</desc>
    <defs></defs>
    <g id="Artboard-9-Copy-2" stroke="none" stroke-width="1" fill="none" fill-rule="evenodd">
        <path d="M49.3114253,27.3050343 C53.0055719,27.3050343 56,24.5504671 56,21.1525998 C56,17.7547326 53.0053921,15 49.3114253,15 C38.2766161,15 27.9023426,18.9527155 20.0997544,26.1298669 C12.2969864,33.3070183 8,42.8497148 8,53 L21.3773291,53 C21.3771494,38.8316938 33.9082739,27.3050343 49.3114253,27.3050343 Z" id="Shape" fill="#ACDFEA" fill-rule="nonzero" class="hWgqKNAj_0"></path>
        <path d="M50.8886857,15 C48.5592061,15 46.2582001,15.158333 44,15.4640909 L44,28 C46.2115723,27.5438423 48.517738,27.3008887 50.8886857,27.3008887 C54.8163143,27.3008887 58,24.5472495 58,21.150527 C58,17.7538045 54.8161232,15 50.8886857,15 Z" id="Shape" fill="#145587" fill-rule="nonzero" opacity="0.3" class="hWgqKNAj_1"></path>
        <path d="M21.6001183,53 L8,53 C8,63.150241 12.3687909,72.6928961 20.3014318,79.8700162 C28.2340728,87.0473016 38.7812637,91 50,91 L50,78.6950192 C34.3401104,78.6950192 21.6001183,67.1682445 21.6001183,53 Z" id="Shape" fill="#54B8AC" fill-rule="nonzero" class="hWgqKNAj_2"></path>
        <path d="M52.0014779,9.07731589 L52.8673546,31.5901112 C52.9098067,32.6938646 53.8389898,33.5542194 54.9427432,33.5117673 C55.2323403,33.500629 55.5160572,33.4266859 55.7742518,33.2950573 L80.4011607,20.7401626 C80.6816713,20.5971571 80.7931413,20.2538295 80.6501359,19.9733188 C80.5941312,19.8634635 80.5040187,19.7747271 80.3933146,19.7204194 L54.8808502,7.20487082 C53.8891794,6.71839081 52.6909014,7.12792886 52.2044214,8.11959966 C52.0584794,8.41709683 51.9887424,8.74619439 52.0014779,9.07731589 Z" id="Line-15" stroke="#145587" fill="#145587" fill-rule="nonzero" stroke-linecap="square" class="hWgqKNAj_3"></path>
        <path d="M51.6705478,86.286344 C62.8696577,84.6899353 68.4134764,80.4750208 72.7608278,74.278085 C76.9969398,68.2397156 80.1938445,60.3554068 79.0983133,48.4742815" id="Path-2" stroke="#F5A623" stroke-width="12" fill-rule="nonzero" transform="translate(65.492935, 67.380313) rotate(6.000000) translate(-65.492935, -67.380313) " class="hWgqKNAj_4"></path>
        <path d="M76.5,48 L85.5,48 C86.3284271,48 87,48.6715729 87,49.5 L87,49.5 C87,50.3284271 86.3284271,51 85.5,51 L76.5,51 C75.6715729,51 75,50.3284271 75,49.5 L75,49.5 C75,48.6715729 75.6715729,48 76.5,48 Z" id="Rectangle-53" fill="#F5A623" fill-rule="nonzero" class="hWgqKNAj_5"></path>
    </g>
<style data-made-with="vivus-instant">.hWgqKNAj_0{stroke-dasharray:139 141;stroke-dashoffset:140;animation:hWgqKNAj_draw 2000ms linear 0ms forwards;}.hWgqKNAj_1{stroke-dasharray:48 50;stroke-dashoffset:49;animation:hWgqKNAj_draw 2000ms linear 200ms forwards;}.hWgqKNAj_2{stroke-dasharray:132 134;stroke-dashoffset:133;animation:hWgqKNAj_draw 2000ms linear 400ms forwards;}.hWgqKNAj_3{stroke-dasharray:88 90;stroke-dashoffset:89;animation:hWgqKNAj_draw 2000ms linear 600ms forwards;}.hWgqKNAj_4{stroke-dasharray:53 55;stroke-dashoffset:54;animation:hWgqKNAj_draw 2000ms linear 800ms forwards;}.hWgqKNAj_5{stroke-dasharray:28 30;stroke-dashoffset:29;animation:hWgqKNAj_draw 2000ms linear 1000ms forwards;}@keyframes hWgqKNAj_draw{100%{stroke-dashoffset:0;}}@keyframes hWgqKNAj_fade{0%{stroke-opacity:1;}94.44444444444444%{stroke-opacity:1;}100%{stroke-opacity:0;}}</style></svg>