<!--?xml version="1.0" encoding="UTF-8"?-->
<svg width="100px" height="100px" viewBox="0 0 100 100" version="1.1" xmlns="http://www.w3.org/2000/svg" xmlns:xlink="http://www.w3.org/1999/xlink" style="">
    <!-- Generator: Sketch 51.2 (57519) - http://www.bohemiancoding.com/sketch -->
    <title>Artboard 9 Copy</title>
    <desc>Created with Sketch.</desc>
    <defs></defs>
    <g id="Artboard-9-Copy" stroke="none" stroke-width="1" fill="none" fill-rule="evenodd">
        <g id="Group-5" transform="translate(1.000000, -10.000000)" fill-rule="nonzero">
            <g id="Group-3" transform="translate(59.000000, 43.000000)" fill="#0E84AE">
                <path d="M23.0463591,9.80575043 C22.6212121,11.266766 21.4520579,14.3785395 21.1969697,15.9344262 C21.9409769,15.6877613 22.7274989,15.5549417 23.5140208,15.5169932 C23.5140208,15.4031478 23.5140208,15.2893025 23.5352782,15.1754571 L23.6840796,14.0370034 C23.9391678,12.348297 25.0232926,9.1226782 25.469697,7.37704918 C24.1517413,7.77550798 23.3864767,8.62934826 23.0463591,9.80575043 Z" id="Shape" class="POVsSPdg_0"></path>
                <path d="M37.7964791,1.71496642 C36.707603,0.829288898 34.9883249,0.501973293 33.7084179,1.96526659 C32.8105727,3.00497498 32.3712017,6.23962331 32.2183769,7.10604697 C31.7025935,10.2059183 31.1868101,14.6535597 31.1103977,17.7726849 C31.1103977,17.9844774 31.0912947,18.2732853 31.0721916,18.4850777 C30.9957792,19.8521017 30.6710267,21.1228564 30.097934,22.3743573 C26.9650273,29.247985 20.6610078,37.9122216 20.6610078,37.9122216 L20.3171522,38.4320758 C20.0497089,38.8171529 19.5339255,38.95193 19.1136575,38.7208836 C18.6551834,38.4705835 18.5023587,37.8737138 18.7698019,37.4308751 L27.098749,23.7413813 C27.9965942,22.2203264 27.4808107,20.0638942 25.8570481,19.0626935 C24.1950793,18.042239 22.0555333,18.5620931 21.1767912,20.083148 L12.5230917,31.3081479 C11.949999,32.0397945 10.8993291,33.0987568 10.1352055,33.6378648 C2.34114496,39.2984994 1.30957813,45.0168956 0.621866903,47.962736 C0.621866903,47.962736 0.564557635,48.6173672 0.545454545,49.5608063 C0.545454545,50.3502146 0.564557635,51.3321614 0.698279261,52.3141082 L1.21406268,61.7484992 C1.21406268,62.4416381 1.76805227,63 2.4557635,63 L17.1078331,62.9229846 C17.7955444,62.9229846 18.349534,62.3646226 18.349534,61.6714837 L18.6169772,53.8929246 L32.5240264,37.0072902 C34.58716,34.8123502 35.9625825,32.3478563 36.4210566,29.3635081 L36.5547783,28.4970845 L38.9808706,4.81483774 C39.0954892,3.64035233 38.6943243,2.44661306 37.7964791,1.71496642 Z" id="Shape" fill-opacity="0.568189538" class="POVsSPdg_1"></path>
                <path d="M28.1055579,7.04673196 C27.4373115,9.47111632 26.5260664,14.1830246 26.1818182,16.6660634 C26.2020681,16.7051664 26.222318,16.7247179 26.2425679,16.7442694 C26.7285653,16.9006813 27.1943128,17.1157476 27.6398104,17.369917 C27.9840586,17.5654318 28.3080569,17.8196012 28.6320551,18.0737705 C28.6320551,17.8000497 28.652305,17.5458803 28.652305,17.2721595 C28.7130547,14.6718118 29.4015511,9.76438862 29.8672986,7.04673196 C30.0090478,6.22556951 30.171047,5.38485558 30.4545455,4.52459016 C29.1788022,4.93517139 28.4295562,5.81498829 28.1055579,7.04673196 Z" id="Shape" class="POVsSPdg_2"></path>
            </g>
            <g id="Group-4" transform="translate(53.002919, 45.130941) rotate(10.000000) translate(-53.002919, -45.130941) translate(25.502919, 5.130941)">
                <g id="Group-2" transform="translate(0.178368, 0.988768)">
                    <path d="M17.9132569,18.6596462 C9.73299971,20.6153711 4.45998673,25.2398588 2.09421798,32.5331093 C-0.271550766,39.8263598 0.303172809,46.1324794 3.81838871,51.4514681" id="Line-12" stroke="#F5A623" stroke-width="9" stroke-linecap="square" class="POVsSPdg_3"></path>
                    <path id="Triangle" fill-opacity="0.720420063" fill="#F5A623" style="mix-blend-mode: luminosity;" transform="translate(33.426344, 15.097151) rotate(76.000000) translate(-33.426344, -15.097151) " d="M33.426344,3.78522557L45.8798545,26.4090771L20.9728335,26.4090771Z" class="POVsSPdg_4"></path>
                </g>
                <g id="Group" transform="translate(28.424463, 51.847517) rotate(-8.000000) translate(-28.424463, -51.847517) translate(5.424463, 27.347517)">
                    <path d="M42.6718301,1.61632268 C34.1786026,3.69004007 28.7038482,8.59353156 26.247567,16.3267972 C23.7912857,24.0600627 24.3879978,30.7466421 28.0377031,36.3865351" id="Line-12" stroke="#57B7AB" stroke-width="9" stroke-linecap="square" transform="translate(33.718624, 19.001429) rotate(-172.000000) translate(-33.718624, -19.001429) " class="POVsSPdg_5"></path>
                    <path id="Triangle" fill-opacity="0.711277174" fill="#57B7AB" transform="translate(9.674445, 34.644041) rotate(-5.000000) translate(-9.674445, -34.644041) " d="M1.10764169,34.644041L18.2412492,21.7713224L18.2412492,47.5167595Z" class="POVsSPdg_6"></path>
                </g>
            </g>
            <g id="Group" transform="translate(0.000000, 44.000000)">
                <path d="M38.3781435,47.962736 C37.6905255,45.0168956 36.639998,39.2984994 28.8660948,33.6378648 C28.1211754,33.0987568 27.0515474,32.0397945 26.4785324,31.3081479 L17.8260063,20.083148 C16.9282828,18.5620931 14.7890269,18.042239 13.1654844,19.0626935 C11.5228415,20.0638942 11.0262285,22.2203264 11.923952,23.7413813 L20.2517697,37.4308751 C20.5191767,37.8737138 20.3663727,38.4705835 19.9079607,38.7208836 C19.4877497,38.95193 18.9720362,38.8171529 18.7046292,38.4320758 L18.3608202,37.9122216 C18.3608202,37.9122216 12.0576555,29.2287311 8.92517361,22.3743573 C8.35215863,21.1228564 8.02745015,19.8521017 7.95104815,18.4850777 C7.91284715,18.2732853 7.89374665,17.9844774 7.89374665,17.7726849 C7.79824416,14.6535597 7.30163118,10.2059183 6.7859177,7.10604697 C6.6331137,6.23962331 6.19380222,2.98572112 5.29607875,1.96526659 C4.0163453,0.501973293 2.29730037,0.829288898 1.20857191,1.71496642 C0.310848449,2.44661306 -0.109362534,3.65960619 0.0243409604,4.81483774 L2.45010437,28.4970845 L2.58380786,29.3635081 C3.02311934,32.3478563 4.41745579,34.8123502 6.48030971,37.0072902 L20.3854732,53.8929246 L20.6528802,61.6714837 C20.6528802,62.3646226 21.2067946,62.9229846 21.8944126,62.9229846 L36.5444955,63 C37.2321135,63 37.786028,62.4416381 37.786028,61.7484992 L38.3017415,52.3141082 C38.435445,51.3321614 38.4545455,50.3309607 38.4545455,49.5608063 C38.4545455,48.6173672 38.3781435,47.962736 38.3781435,47.962736 Z" id="Shape" fill="#7ABBD2" class="POVsSPdg_7"></path>
                <path d="M11.6065633,7.04309775 C11.2623151,5.81312893 10.533319,4.93457977 9.25757576,4.52459016 C9.52082436,5.38361601 9.70307339,6.22311853 9.84482263,7.04309775 C10.3105702,9.77636179 10.9990665,14.6767138 11.0598162,17.2733146 C11.0598162,17.546641 11.0800661,17.8004441 11.0800661,18.0737705 C11.3838144,17.8199674 11.7078127,17.5661643 12.0723108,17.3514079 C12.5178084,17.0780814 12.9835559,16.8828483 13.4695534,16.7266618 C13.4898032,16.6876152 13.5100531,16.6680918 13.530303,16.6485685 C13.1860549,14.1691076 12.2748097,9.48351207 11.6065633,7.04309775 Z" id="Shape" fill="#0E84AE" class="POVsSPdg_8"></path>
                <path d="M17.8030303,15.9344262 C17.5479421,14.3785395 16.3787879,11.266766 15.9536409,9.80575043 C15.6135233,8.62934826 14.8482587,7.77550798 13.530303,7.37704918 C13.95545,9.1226782 15.0608322,12.3293228 15.3159204,14.0370034 L15.4859792,15.1944313 C15.4859792,15.2893025 15.4859792,15.4031478 15.4859792,15.5169932 C16.2725011,15.5359674 17.0590231,15.6877613 17.8030303,15.9344262 Z" id="Shape" fill="#0E84AE" class="POVsSPdg_9"></path>
            </g>
        </g>
    </g>
<style data-made-with="vivus-instant">.POVsSPdg_0{stroke-dasharray:21 23;stroke-dashoffset:22;animation:POVsSPdg_draw 3600ms ease-in 0ms forwards;}.POVsSPdg_1{stroke-dasharray:208 210;stroke-dashoffset:209;animation:POVsSPdg_draw 3600ms ease-in 0ms forwards;}.POVsSPdg_2{stroke-dasharray:30 32;stroke-dashoffset:31;animation:POVsSPdg_draw 3600ms ease-in 0ms forwards;}.POVsSPdg_3{stroke-dasharray:42 44;stroke-dashoffset:43;animation:POVsSPdg_draw 3600ms ease-in 0ms forwards;}.POVsSPdg_4{stroke-dasharray:77 79;stroke-dashoffset:78;animation:POVsSPdg_draw 3600ms ease-in 0ms forwards;}.POVsSPdg_5{stroke-dasharray:45 47;stroke-dashoffset:46;animation:POVsSPdg_draw 3600ms ease-in 0ms forwards;}.POVsSPdg_6{stroke-dasharray:69 71;stroke-dashoffset:70;animation:POVsSPdg_draw 3600ms ease-in 0ms forwards;}.POVsSPdg_7{stroke-dasharray:208 210;stroke-dashoffset:209;animation:POVsSPdg_draw 3600ms ease-in 0ms forwards;}.POVsSPdg_8{stroke-dasharray:30 32;stroke-dashoffset:31;animation:POVsSPdg_draw 3600ms ease-in 0ms forwards;}.POVsSPdg_9{stroke-dasharray:21 23;stroke-dashoffset:22;animation:POVsSPdg_draw 3600ms ease-in 0ms forwards;}@keyframes POVsSPdg_draw{100%{stroke-dashoffset:0;}}@keyframes POVsSPdg_fade{0%{stroke-opacity:1;}94.87179487179488%{stroke-opacity:1;}100%{stroke-opacity:0;}}</style></svg>