<!--?xml version="1.0" encoding="UTF-8"?-->
<svg width="100px" height="100px" viewBox="0 0 100 100" version="1.1" xmlns="http://www.w3.org/2000/svg" xmlns:xlink="http://www.w3.org/1999/xlink" style="">
    <!-- Generator: Sketch 51.2 (57519) - http://www.bohemiancoding.com/sketch -->
    <title>Artboard 9</title>
    <desc>Created with Sketch.</desc>
    <defs></defs>
    <g id="Artboard-9" stroke="none" stroke-width="1" fill="none" fill-rule="evenodd">
        <g id="Group-2" transform="translate(8.000000, 11.000000)" fill-rule="nonzero">
            <path d="M77.28,34.6851231 L56.8345563,34.72 C55.3168485,27.5527875 49.7344748,21.9550377 42.5646135,20.420452 C42.5297237,20.420452 42.7041729,0 42.7041729,0 C60.8468874,1.81360121 75.5006184,16.3572878 77.28,34.6851231 Z" id="Shape" fill="#57B7AB" class="LzWZcsPo_0"></path>
            <path d="M34.72,56.7966894 L34.72,77.28 C34.667907,77.28 34.615814,77.28 34.5463566,77.28 C26.9407752,76.5440727 19.7172093,73.530275 13.8133333,68.6240929 L28.1389147,54.1333333 C30.1010853,55.4124451 32.2716279,56.3060712 34.5463566,56.7791673 C34.5810853,56.7791673 34.5463566,56.7966894 34.72,56.7966894 Z" id="Shape" fill="#F5A623" class="LzWZcsPo_1"></path>
            <path d="M35.0933333,0 L35.0579244,10.08 L26.5066667,1.75753846 C29.2685636,0.861538462 32.1189828,0.275692308 35.004811,0.0172307692 C35.0225155,0.0172307692 35.0579244,0.0172307692 35.0933333,0 Z" id="Shape" fill="#57B7AB" class="LzWZcsPo_2"></path>
            <path d="M34.72,10.3299617 L34.6849733,20.16 L34.6499466,20.16 L19.4133333,4.91555556 C21.6025019,3.67146871 23.8967506,2.65517241 26.278566,1.86666667 L34.72,10.3299617 Z" id="Shape" fill="#F8BE60" class="LzWZcsPo_3"></path>
            <path d="M34.72,19.910287 L34.72,20.3256512 C32.3450304,20.8102428 30.1087452,21.779426 28.1151575,23.1466667 L28.097822,23.112053 L13.8133333,8.86852097 C15.61623,7.36282561 17.5578109,6.01289183 19.6034052,4.85333333 L34.6853289,19.910287 L34.72,19.910287 Z" id="Shape" fill="#57B7AB" class="LzWZcsPo_4"></path>
            <path d="M28.3557964,23.3798315 L28.3733333,23.4148736 C26.4267389,24.7464741 24.7607347,26.4284958 23.4279313,28.3733333 L23.3928576,28.3558123 L8.96,13.9184597 C10.4681722,12.1137906 12.1166396,10.4668111 13.905402,8.96 L28.3557964,23.3798315 Z" id="Shape" fill="#F5A623" class="LzWZcsPo_5"></path>
            <g id="Group" transform="translate(0.000000, 13.813333)" fill="#57B7AB">
                <path d="M23.1118596,14.5026197 L23.1466667,14.5201033 C21.824,16.4607793 20.901614,18.6287418 20.3969123,20.9190892 L19.5963509,20.9190892 L19.5963509,20.8491549 L4.75115789,5.93567136 C5.91719298,3.87261033 7.25726316,1.9144507 8.77136842,0.0786760563 L23.1118596,14.5026197 Z" id="Shape" class="LzWZcsPo_6"></path>
                <path d="M23.0074386,35.0982629 L8.61473684,49.5571737 C3.74175439,43.6302441 0.765754386,36.3570798 0.0174035088,28.7167606 C0.0174035088,28.6817934 0.0174035088,28.7866948 -1.27953204e-14,28.6118592 L20.3447018,28.6118592 C20.832,30.9196901 21.7369825,33.1226197 23.0074386,35.0982629 Z" id="Shape" class="LzWZcsPo_7"></path>
            </g>
            <path d="M19.7866667,34.6502995 L19.7866667,34.72 L9.88350877,34.72 L9.88350877,34.6328744 L1.86666667,26.6347413 C2.65263158,24.2649242 3.66565302,21.9648075 4.88826511,19.7866667 L19.7866667,34.6502995 Z" id="Shape" fill="#F5A623" class="LzWZcsPo_8"></path>
            <path id="Oval-4" fill-opacity="0.453747736" fill="#88CCC4" d="M41,62.5A21.5,21.5 0,1,1 84,62.5A21.5,21.5 0,1,1 41,62.5" class="LzWZcsPo_9"></path>
            <path d="M9.70666667,34.6314943 L9.70666667,34.72 L0,34.72 C0.27882705,31.9232184 0.85390784,29.1795402 1.70781568,26.5066667 L9.70666667,34.6314943 Z" id="Shape" fill="#57B7AB" class="LzWZcsPo_10"></path>
            <path id="Line-13" stroke="#145587" stroke-width="2" stroke-linecap="square" d="M57.3529412,62.4705882L60.8823529,66L70.1470588,58.5" class="LzWZcsPo_11"></path>
        </g>
        <path d="M61,68 L71.0645161,61 L81.9677419,67.7096774 C82.0625889,73.1345423 81.5034491,76.7689509 80.2903226,78.6129032 C79.077196,80.4568556 76.1434316,83.2525545 71.4890293,87 C66.4749452,83.4027439 63.3119354,80.607045 62,78.6129032 C60.6880646,76.6187614 60.3547313,73.081127 61,68 Z" id="Line-14" stroke="#145587" stroke-width="3" stroke-linecap="square" fill-rule="nonzero" class="LzWZcsPo_12"></path>
    </g>
<style data-made-with="vivus-instant">.LzWZcsPo_0{stroke-dasharray:116 118;stroke-dashoffset:117;animation:LzWZcsPo_draw 3600ms ease-in 0ms forwards;}.LzWZcsPo_1{stroke-dasharray:71 73;stroke-dashoffset:72;animation:LzWZcsPo_draw 3600ms ease-in 0ms forwards;}.LzWZcsPo_2{stroke-dasharray:31 33;stroke-dashoffset:32;animation:LzWZcsPo_draw 3600ms ease-in 0ms forwards;}.LzWZcsPo_3{stroke-dasharray:51 53;stroke-dashoffset:52;animation:LzWZcsPo_draw 3600ms ease-in 0ms forwards;}.LzWZcsPo_4{stroke-dasharray:57 59;stroke-dashoffset:58;animation:LzWZcsPo_draw 3600ms ease-in 0ms forwards;}.LzWZcsPo_5{stroke-dasharray:55 57;stroke-dashoffset:56;animation:LzWZcsPo_draw 3600ms ease-in 0ms forwards;}.LzWZcsPo_6{stroke-dasharray:57 59;stroke-dashoffset:58;animation:LzWZcsPo_draw 3600ms ease-in 0ms forwards;}.LzWZcsPo_7{stroke-dasharray:71 73;stroke-dashoffset:72;animation:LzWZcsPo_draw 3600ms ease-in 0ms forwards;}.LzWZcsPo_8{stroke-dasharray:50 52;stroke-dashoffset:51;animation:LzWZcsPo_draw 3600ms ease-in 0ms forwards;}.LzWZcsPo_9{stroke-dasharray:136 138;stroke-dashoffset:137;animation:LzWZcsPo_draw 3600ms ease-in 0ms forwards;}.LzWZcsPo_10{stroke-dasharray:30 32;stroke-dashoffset:31;animation:LzWZcsPo_draw 3600ms ease-in 0ms forwards;}.LzWZcsPo_11{stroke-dasharray:17 19;stroke-dashoffset:18;animation:LzWZcsPo_draw 3600ms ease-in 0ms forwards;}.LzWZcsPo_12{stroke-dasharray:72 74;stroke-dashoffset:73;animation:LzWZcsPo_draw 3600ms ease-in 0ms forwards;}@keyframes LzWZcsPo_draw{100%{stroke-dashoffset:0;}}@keyframes LzWZcsPo_fade{0%{stroke-opacity:1;}94.87179487179488%{stroke-opacity:1;}100%{stroke-opacity:0;}}</style></svg>